<svg width="1280" height="554" viewBox="0 0 1280 554" fill="none" xmlns="http://www.w3.org/2000/svg">
<g filter="url(#filter0_d_33_8)">
<path d="M1361 570.157H639H-81C-81 288.302 240.803 24 639 24C1037.2 24 1361 288.302 1361 570.157Z" fill="#FFBD61"/>
</g>
<path d="M674.365 393.867C658.566 417.922 623.297 417.922 607.498 393.867L466.363 178.98C452.795 158.323 461.367 131.215 485.328 125.161C520.144 116.365 573.748 107.201 640.932 109.522C704.649 111.724 756.153 119.695 790.998 126.867C816.734 132.165 827.269 161.063 812.844 183.026L674.365 393.867Z" fill="url(#paint0_linear_33_8)"/>
<path d="M945.479 494.683C919.769 507.615 889.225 489.981 887.57 461.249L872.786 204.584C871.365 179.911 892.343 160.72 916.121 167.458C950.67 177.248 1001.68 196.114 1058.7 231.716C1112.78 265.481 1153.39 298.136 1179.99 321.77C1199.63 339.226 1194.3 369.52 1170.83 381.328L945.479 494.683Z" fill="url(#paint1_linear_33_8)"/>
<path d="M407.381 461.249C405.727 489.981 375.182 507.615 349.473 494.683L119.802 379.153C97.7242 368.047 91.5934 340.284 109.318 323.061C135.071 298.036 176.911 263.297 236.254 231.716C292.536 201.763 341.125 182.915 374.888 171.704C399.825 163.424 423.397 183.183 421.887 209.416L407.381 461.249Z" fill="url(#paint2_linear_33_8)"/>
<defs>
<filter id="filter0_d_33_8" x="-105" y="0" width="1490" height="594.157" filterUnits="userSpaceOnUse" color-interpolation-filters="sRGB">
<feFlood flood-opacity="0" result="BackgroundImageFix"/>
<feColorMatrix in="SourceAlpha" type="matrix" values="0 0 0 0 0 0 0 0 0 0 0 0 0 0 0 0 0 0 127 0" result="hardAlpha"/>
<feOffset/>
<feGaussianBlur stdDeviation="12"/>
<feComposite in2="hardAlpha" operator="out"/>
<feColorMatrix type="matrix" values="0 0 0 0 0 0 0 0 0 0 0 0 0 0 0 0 0 0 0.1 0"/>
<feBlend mode="normal" in2="BackgroundImageFix" result="effect1_dropShadow_33_8"/>
<feBlend mode="normal" in="SourceGraphic" in2="effect1_dropShadow_33_8" result="shape"/>
</filter>
<linearGradient id="paint0_linear_33_8" x1="640.932" y1="434.772" x2="640.932" y2="27.772" gradientUnits="userSpaceOnUse">
<stop offset="0.2" stop-color="white" stop-opacity="0"/>
<stop offset="1" stop-color="white" stop-opacity="0.7"/>
</linearGradient>
<linearGradient id="paint1_linear_33_8" x1="896.072" y1="513.39" x2="1099.57" y2="160.918" gradientUnits="userSpaceOnUse">
<stop offset="0.3" stop-color="white" stop-opacity="0"/>
<stop offset="1" stop-color="white" stop-opacity="0.7"/>
</linearGradient>
<linearGradient id="paint2_linear_33_8" x1="398.879" y1="513.39" x2="195.379" y2="160.918" gradientUnits="userSpaceOnUse">
<stop offset="0.3" stop-color="white" stop-opacity="0"/>
<stop offset="1" stop-color="white" stop-opacity="0.7"/>
</linearGradient>
</defs>
</svg>
