<svg width="1280" height="547" viewBox="0 0 1280 547" fill="none" xmlns="http://www.w3.org/2000/svg">
<path d="M1361 546.157H639H-81C-81 264.302 240.803 0 639 0C1037.2 0 1361 264.302 1361 546.157Z" fill="#FEC97F"/>
<path d="M674.365 369.867C658.566 393.922 623.297 393.922 607.498 369.867L466.363 154.98C452.795 134.323 461.367 107.215 485.328 101.161C520.144 92.3653 573.748 83.2006 640.932 85.522C704.649 87.7236 756.153 95.6949 790.998 102.867C816.734 108.165 827.269 137.063 812.844 159.026L674.365 369.867Z" fill="url(#paint0_linear_33_8)"/>
<path d="M945.479 470.683C919.769 483.615 889.225 465.981 887.57 437.249L872.786 180.584C871.365 155.911 892.343 136.72 916.121 143.458C950.67 153.248 1001.68 172.113 1058.7 207.715C1112.78 241.481 1153.39 274.136 1179.99 297.77C1199.63 315.226 1194.3 345.52 1170.83 357.328L945.479 470.683Z" fill="url(#paint1_linear_33_8)"/>
<path d="M407.381 437.249C405.727 465.981 375.182 483.615 349.473 470.683L119.802 355.153C97.7242 344.047 91.5934 316.284 109.318 299.061C135.071 274.036 176.911 239.297 236.254 207.716C292.536 177.763 341.125 158.915 374.888 147.704C399.825 139.423 423.397 159.183 421.886 185.415L407.381 437.249Z" fill="url(#paint2_linear_33_8)"/>
<defs>
<linearGradient id="paint0_linear_33_8" x1="640.932" y1="410.772" x2="640.932" y2="3.77196" gradientUnits="userSpaceOnUse">
<stop offset="0.2" stop-color="white" stop-opacity="0"/>
<stop offset="1" stop-color="white" stop-opacity="0.7"/>
</linearGradient>
<linearGradient id="paint1_linear_33_8" x1="896.072" y1="489.39" x2="1099.57" y2="136.918" gradientUnits="userSpaceOnUse">
<stop offset="0.3" stop-color="white" stop-opacity="0"/>
<stop offset="1" stop-color="white" stop-opacity="0.7"/>
</linearGradient>
<linearGradient id="paint2_linear_33_8" x1="398.879" y1="489.39" x2="195.379" y2="136.918" gradientUnits="userSpaceOnUse">
<stop offset="0.3" stop-color="white" stop-opacity="0"/>
<stop offset="1" stop-color="white" stop-opacity="0.7"/>
</linearGradient>
</defs>
</svg>
